<svg version="1" xmlns="http://www.w3.org/2000/svg" width="666.667" height="666.667" viewBox="0 0 500.000000 500.000000"><path d="M179 32.2c-29.2 2.4-61.5 13.7-87 30.5-47.1 31.1-77.8 78.2-87.4 134-4.9 28.5-4.9 49.5 0 80.3 6.4 40.6 24.7 84.1 49 116.7C61.3 404 77.8 420.9 86 427c8 6 17.5 10.5 24.9 12.1 14.3 2.9 31.5-5 40.2-18.4 2.3-3.6 4.1-5.4 4.3-4.6 1.2 3.5 12.7 33.8 14 37 3.4 8.2 13.8 14.3 24.3 14.4 4.7 0 6.8-.5 8.9-2.1l2.8-2 6 2.5c9.2 3.7 21 3.6 28.8-.2 3.1-1.5 6.9-4.2 8.3-5.9 2.6-3 2.8-3.1 12.3-3.3 5.3-.1 11.4-.7 13.4-1.4 9.2-2.9 19.2-12.8 20.4-20 .5-3.2 1.2-4 4.7-5.7 7.5-3.4 11.2-11.8 10.5-23.6-.3-6-1.1-8.3-7.1-20-3.6-7.3-9.8-18.6-13.7-25.1-3.8-6.4-7-12-7-12.3 0-.3 1.2.3 2.8 1.4 4.3 3 13.1 5.9 22.1 7.2 13.6 2 24.6-.3 29.6-6.1l2.4-3 5.4 3.1c14.1 8 32.3 8.9 46.9 2.3 6-2.6 11.8-8.1 11.8-10.9 0-1.2.6-1.5 2.3-1.1 14.3 3.5 32.9.4 44.6-7.4 7.3-4.9 11.4-11.1 11.7-17.8l.2-4.5 6.8-1.4c17.2-3.4 27.7-14.8 29.9-32.2 1.6-13.4-3.9-29.2-12.4-35.4-19.7-14.5-81.9-28.9-171.6-39.6-9.9-1.2-18.2-2.3-18.3-2.5-.2-.2.7-3.5 1.9-7.4l2.3-7.1 8-3c4.3-1.7 8.3-2.9 8.8-2.8.5.2 2.2 3.3 3.7 6.8l2.7 6.5 12.9-.1c10.9-.2 14.5-.6 22-2.9 21.1-6.2 34.3-17.1 43.9-36.1 4.4-8.8 6.8-17.4 10.5-38.4 3.1-16.9 5.2-24.3 9.1-32 3.3-6.6 9.6-15.7 15.6-22.7 3-3.3 5.4-6.3 5.4-6.6 0-1.6-12.6-2.9-22.5-2.4-27.2 1.2-53.5 13.4-75.4 34.9-7.8 7.7-15.6 18.1-19.8 26.3-1.4 2.7-2.6 5.1-2.8 5.3-.1.1-2.7-.7-5.7-1.7-3.1-1-8-2.4-11.1-3.1-5.5-1.1-5.5-1.1-7.2-6.3-11.6-35.6-41.2-64.1-75.5-72.6-13.7-3.5-27-4.3-44-2.9zm237.2 37.3c-7.4 8.4-11.7 19.5-16.2 41.7-5.5 27.2-9.4 39.5-14.6 45.5l-1.9 2.2-9.5-8.2c-5.3-4.5-11.1-9.3-12.9-10.7l-3.3-2.5 5.7-10.5c8.3-15.3 17.4-28.7 25.6-37.3 3.9-4.3 6.7-7.7 6.2-7.7-.6 0-3.7 1.7-7 3.9-11.7 7.5-26.1 24.7-34.7 41.2l-2.9 5.5-7.8-4.4-7.7-4.4 3.4-5.9c9.5-16.9 26.3-32.8 43.9-41.6 10.7-5.4 26-10 33.9-10.2l2.8-.1-3 3.5zM209 102.8c10.9 4.3 20.8 14.1 25.2 25.2 1.8 4.4 2.2 7.5 2.3 16 0 9.8-.2 11-3.2 17.3-3.6 7.5-11.4 16.4-17.7 20.1-13.3 7.8-32.5 7.5-45.2-.7-5.8-3.7-12.9-11.5-15.8-17.2-3.7-7.5-4.9-13.6-4.4-22.8.9-17.9 12.8-33 30.6-38.8 7.6-2.5 20.4-2.1 28.2.9zm87 22.6c17.2 2.6 37.8 11.4 53.9 23.1 9.4 6.8 16.3 12.9 13.6 12-12.5-4.2-21.7-5.8-34-5.9-12.4-.1-13.5.1-24 3.6-13.3 4.4-20.2 5.3-28 3.9-3.2-.6-6-.9-6.2-.7-.2.2 1.8 1.4 4.4 2.7 6.5 3.2 17.4 3.1 29.3-.4 4.7-1.4 8.6-2.5 8.7-2.4.1.1.4 1.3.8 2.7.6 2.4.2 2.7-6.7 4.9-4 1.3-13 5.3-20.1 8.9-7 3.5-12.9 6.3-13.1 6.1-.2-.2-1.2-2.9-2.2-5.9-1.5-4.2-1.9-8.3-1.9-17.5.1-10.4.4-13 2.7-19.3 3.5-9.7 8.4-17.2 11.2-17.2 1.1 0 6.4.7 11.6 1.4zm41.2 35.2l4.5.6-.5 4.4c-.6 5.5.8 5.7 2.9.5l1.7-4 6.3 1.5c8.3 1.9 19.9 5.3 19.9 5.9 0 .8-9.3 5.2-14.5 6.8-6.2 1.9-14.6 3.5-20.5 3.9l-4.4.3-2.3-7c-1.2-3.9-2.2-8.5-2.2-10.3-.1-3.6.6-3.8 9.1-2.6zm-16.4 63.9c62.6 8 123.7 21 135.4 28.8 1.8 1.3 4.3 3.8 5.5 5.6 2.5 3.7 3.1 7.3 1.1 6.6-5.1-1.8-111.5-12-134.3-12.8-15.1-.6-17-1.1 29 7.4 17.6 3.3 33.4 6.4 35 6.9 1.7.5 14.5 3.2 28.5 6 14 2.7 28.9 5.7 33 6.6l7.4 1.7-5.1 4.7c-7.1 6.5-13.5 8.4-26.5 7.8-8.8-.4-9.8-.3-9.2 1.1.4.9.9 3.6 1.2 6.1 1 9.7-7 16.5-21.9 18.5-4.2.6-16.5-.6-20.1-2-1.2-.5-1.5.3-1.4 3.7.1 6-2.4 9.4-9.2 12.6-5.1 2.4-6.8 2.7-16.7 2.6-10.9 0-13.7-.7-25.5-5.8-1.2-.5-1.8.2-2.5 2.6s-2.2 4-5.5 5.8c-4.1 2.3-5.5 2.5-16 2.4-13.1-.1-20.6-2.1-27.4-7.6-3.8-3.1-3.9-3.1-3.2-.7 2.5 8.4 1.2 17.8-4.3 29.6-6 12.8-17.6 26.7-28.4 34.2-6.4 4.4-18 9.7-25.2 11.6-13.4 3.5-35.5 2.9-56-1.6-36.9-7.9-71.9-29.3-96.3-58.7-9.3-11.2-22.5-32.6-24.7-39.9-.6-2.2-.5-2.2 7.5.8 10.5 3.8 22.9 5.9 35 5.9 15.4 0 33-4.1 39.3-9 2.5-2 2.6-2 12.9.5 30 7.3 53.1 5.2 76.8-7.1 11.3-5.9 19.7-12.3 30.5-23.5 10.2-10.7 16.6-19.3 22.7-30.6 2.4-4.4 7.5-11.4 11.7-16.1l7.6-8.3 9.8.5c5.3.4 18.6 1.7 29.5 3.1z"/><path d="M182.5 120.4c-9.3 4.3-14.8 12.8-14.8 23.1-.1 22.8 26.3 34.5 43 19.2 2.5-2.3 5.5-6.2 6.6-8.6 3.9-8.7 1.6-21.3-5.1-28.5-7-7.4-20-9.8-29.7-5.2zm20.5 4.5c1.9 1 4.2 3 5 4.5 1.3 2.3 1.3 2.9 0 5.3-2.5 4.4-7.6 6.8-14.5 6.8s-12-2.4-14.5-6.8c-3.3-5.9 3.9-11.7 14.5-11.7 4 0 7.2.6 9.5 1.9zM425.8 247.7c1.2.2 3.2.2 4.5 0 1.2-.2.2-.4-2.3-.4s-3.5.2-2.2.4zM416.3 248.7c1.5.2 3.7.2 5 0 1.2-.2 0-.4-2.8-.4-2.7 0-3.8.2-2.2.4zM405.3 249.7c1.5.2 3.7.2 5 0 1.2-.2 0-.4-2.8-.4-2.7 0-3.8.2-2.2.4zM394.3 250.7c1.5.2 3.7.2 5 0 1.2-.2 0-.4-2.8-.4-2.7 0-3.8.2-2.2.4zM381.8 251.7c1.8.2 4.5.2 6 0s0-.4-3.3-.4-4.5.2-2.7.4zM367.8 252.7c1.7.2 4.7.2 6.5 0 1.7-.2.3-.4-3.3-.4-3.6 0-5 .2-3.2.4zM391.5 272.8c-1.1 2-3.9 5.1-6.3 6.9-2.4 1.8-4 3.3-3.5 3.3 1.7 0 9.3-7.2 10.9-10.2 2.2-4.3 1.2-4.4-1.1 0zM359.1 287.3c-.2 6.8-3 11-11.1 17-2.4 1.7-2.4 1.7.9 0 7.1-3.8 12-12.1 10.8-18.4-.3-1.6-.5-1.1-.6 1.4zM361.8 285.7c.6.2 1.8.2 2.5 0 .6-.3.1-.5-1.3-.5-1.4 0-1.9.2-1.2.5zM371.8 285.7c.6.2 1.8.2 2.5 0 .6-.3.1-.5-1.3-.5-1.4 0-1.9.2-1.2.5zM310.1 308.5c-1.5 4.2-6.5 8.2-13.4 10.7-4.1 1.5-4.4 1.8-1.7 1.3 5-.8 12.1-5.4 14.9-9.7 2.3-3.6 2.3-3.6 5.7-2.2 1.8.8 4.1 1.4 5.1 1.3 1 0-.1-.6-2.5-1.4-2.3-.7-4.8-1.8-5.5-2.4-1-.8-1.6-.2-2.6 2.4zM340.5 307.5c-1.6.8-2.3 1.4-1.5 1.4.8 0 2.6-.6 4-1.4 3.2-1.8 1.5-1.8-2.5 0zM333.8 309.7c.6.2 1.8.2 2.5 0 .6-.3.1-.5-1.3-.5-1.4 0-1.9.2-1.2.5zM325.3 310.7c1.5.2 3.7.2 5 0 1.2-.2 0-.4-2.8-.4-2.7 0-3.8.2-2.2.4zM266.6 317.5c1.8 4.5 3 6.1 2 2.8-.7-2.2-.7-2.2 2.8-.8 1.9.8 4.1 1.5 4.8 1.4.7 0-.5-.7-2.7-1.5-2.1-.8-5-2.4-6.2-3.6l-2.4-2.2 1.7 3.9zM280.7 321.7c1.8.2 5 .2 7 0 2.1-.2.7-.4-3.2-.4-3.8 0-5.5.2-3.8.4z"/><path d="M269 323.1c0 .4.7 2.2 1.5 4 .8 1.9 1.4 2.7 1.4 1.9 0-1.4-2.8-7.2-2.9-5.9z"/></svg>