<svg 
 xmlns="http://www.w3.org/2000/svg"
 xmlns:xlink="http://www.w3.org/1999/xlink"
 width="512px" height="512px">
<path fill-rule="evenodd"  fill="rgb(0, 0, 0)"
 d="M507.283,234.745 C501.509,253.756 493.783,278.249 484.105,308.223 L418.741,121.721 L381.615,121.721 L325.030,302.474 C312.547,264.839 302.046,233.323 293.530,207.923 C285.014,182.522 279.358,165.277 276.558,156.190 C276.091,154.208 275.653,152.458 275.246,150.941 C274.836,149.426 274.634,147.852 274.634,146.217 C274.634,145.402 274.866,144.467 275.334,143.417 C275.798,142.367 277.080,141.378 279.177,140.443 C281.389,139.511 284.415,138.606 288.257,137.731 C292.098,136.856 297.918,135.954 305.718,135.019 L305.718,121.721 L173.267,121.721 L173.267,135.369 C177.934,135.954 182.043,136.741 185.603,137.731 C189.159,138.723 192.514,140.268 195.663,142.367 C200.095,145.284 203.712,148.171 206.511,151.028 C209.311,153.888 211.818,158.464 214.035,164.763 C221.148,185.527 229.897,211.217 240.280,241.836 C250.660,272.456 265.590,316.110 285.072,372.799 L320.379,372.799 L379.434,188.362 L444.809,372.799 L480.160,372.799 C490.525,342.621 500.602,313.234 510.400,284.612 C496.172,412.527 387.711,512.000 256.000,512.000 C156.699,512.000 70.606,455.459 28.150,372.817 C39.417,375.475 51.389,376.824 64.088,376.824 C80.417,376.824 94.707,374.836 106.955,370.867 C119.202,366.897 129.990,361.232 139.324,353.873 C147.837,347.216 154.603,338.864 159.620,328.820 C164.634,318.776 167.144,308.379 167.144,297.632 C167.144,280.581 162.739,266.302 153.934,254.798 C145.125,243.294 132.265,234.269 115.353,227.727 C108.355,225.042 100.363,222.237 91.383,219.318 C82.399,216.398 73.593,213.478 64.963,210.558 C50.265,205.768 39.445,200.219 32.506,193.909 C25.565,187.599 22.096,179.480 22.096,169.548 C22.096,159.033 26.090,150.214 34.081,143.086 C42.069,135.959 52.365,132.394 64.963,132.394 C74.993,132.394 83.742,134.412 91.208,138.444 C98.671,142.480 105.263,147.887 110.979,154.667 C116.228,160.982 121.215,168.902 125.939,178.433 C130.663,187.963 134.775,197.285 138.274,206.405 L153.321,206.405 L151.921,121.721 L136.699,121.721 L126.026,132.219 C119.142,128.370 109.694,124.521 97.682,120.671 C85.666,116.822 72.776,114.898 59.014,114.898 C53.023,114.898 47.234,115.300 41.622,116.057 C87.331,46.179 166.267,0.000 256.000,0.000 C386.979,0.000 494.967,98.370 510.156,225.257 C509.222,228.349 508.270,231.492 507.283,234.745 ZM65.138,276.647 C80.185,281.453 91.295,287.153 98.469,293.747 C105.643,300.344 109.229,308.485 109.229,318.174 C109.229,329.968 105.000,339.744 96.544,347.508 C88.086,355.273 75.925,359.152 60.064,359.152 C48.281,359.152 37.988,356.697 29.182,351.787 C24.081,348.944 19.274,345.595 14.742,341.773 C5.207,314.956 0.000,286.088 0.000,256.000 C0.000,254.734 0.030,253.475 0.048,252.213 C4.557,254.975 9.510,257.441 14.922,259.601 C22.153,262.414 29.882,265.167 38.105,267.863 C46.329,270.558 55.339,273.486 65.138,276.647 Z"/>
</svg>